<?xml version="1.0" encoding="UTF-8"?>
<svg id="Layer_1" data-name="Layer 1" xmlns="http://www.w3.org/2000/svg" viewBox="0 0 1000 999">
  <defs>
    <style>
      .cls-1 {
        fill: #ffffff;
      }
    </style>
  </defs>
  <path class="cls-1" d="m548,999c3.21-8.37,6.3-16.8,9.7-25.09,1.43-3.49,1.09-5.6-2.79-6.84-3.63-1.17-7.08-3.74-10.7-3.93-5.66-.29-11.37.8-14.19-5.89-18.46-7.1-36.91-14.21-55.38-21.29-.59-.23-1.29-.17-2.38-.29-2.55,6.64-5.25,13.23-7.56,19.95-.53,1.53-.02,3.61.52,5.27,2.68,8.22,5.41,16.43,8.42,24.52.59,1.59,2.28,3.21,3.87,3.91,7.75,3.4,15.64,6.48,23.48,9.68h-13c-4.38-1.94-8.93-3.57-13.07-5.93-2.21-1.26-4.47-3.47-5.37-5.78-3.07-7.9-5.72-15.98-8.17-24.1-1.04-3.44-2.99-5.2-6.25-6.36-4.6-1.63-9.83-2.63-11.46-8.48-.16-.59-1.24-1-1.97-1.34-1.05-.5-2.27-.69-3.23-1.31-1.49-.97-4.17-2.47-4.01-3.27,1.35-6.66-6.49-9.68-5.98-15.51.29-3.34,1.7-6.99,3.73-9.63,1.55-2.02,4.82-2.8,7.44-3.85.35-.14,1.42,1.33,2.06,2.13,1.06,1.34,1.76,3.46,3.11,4,15.44,6.16,30.97,12.11,46.51,18.03,1.08.41,2.51.41,3.6.06.45-.15.92-2.16.56-2.56-.84-.9-2.15-1.41-3.34-1.94-6.1-2.78-7.34-5.82-4.78-11.9,2.25-5.33,5.21-6.71,10.63-4.66,9.96,3.76,19.9,7.56,29.8,11.47,6.21,2.45,7.25,5.04,4.9,11.25-2.38,6.28-4.75,7.42-11.08,5.33-.79-.26-1.64-.91-2.33-.76-1.07.23-2.03.98-3.04,1.51.53.86.87,2.17,1.63,2.5,3.95,1.75,8.09,3.08,12,4.9,2.68,1.25,5.1,3.08,8.59,5.24,7.42-1.47,14.47,3.5,21.76,6.9,3.96,1.85,3.14,6.08,1.75,9.77-3.05,8.08-6.01,16.19-9.01,24.29h-5Zm-18.64-64.65c-.62-.48-1.57-1.61-2.78-2.09-9.87-3.92-19.81-7.66-29.67-11.59-3.13-1.25-4.5-.03-5.65,2.76-1.12,2.71-.72,4.4,2.11,5.47,9.92,3.78,19.79,7.68,29.74,11.37,3.41,1.27,6.47-1.35,6.25-5.92Zm-94.13-13.62c-.89,3.87-5.14,7.2.39,9.51,8.88,3.72,17.89,7.14,26.98,10.29.97.34,3.45-1.74,4.16-3.21.58-1.21.02-4.3-.83-4.65-9.94-4.11-20.02-7.86-30.69-11.94Zm28.17,25.13c-4.45-1.69-8.23-3.12-11.91-4.52-4.38,8.22-2.37,10.72,9.05,11.96.84-2.2,1.72-4.47,2.86-7.44Zm47.56-.71c.45-.32.9-.63,1.35-.95-.65-1.3-.97-3.14-2.02-3.79-2.08-1.3-4.52-2.12-6.91-2.78-1.01-.28-2.27.36-3.41.58.58,1.16.87,2.92,1.79,3.38,2.94,1.45,6.12,2.41,9.2,3.56Zm-70.64-8.96c-1.01,1.18-1.63,1.9-2.25,2.62,1.83,1.34,3.58,2.84,5.57,3.87.42.22,1.73-1.26,2.63-1.95-1.82-1.39-3.65-2.78-5.95-4.54Z"/>
  <path class="cls-1" d="m0,687c13.08-9.19,26.24-18.26,39.18-27.64,3.67-2.66,5.77-2.5,8.41,1.31,10.71,15.46,21.62,30.79,32.6,46.06,1.96,2.73,1.47,4.35-1.05,6.13-19.33,13.62-38.65,27.25-57.9,40.99-3.09,2.21-4.86,1.51-6.85-1.45C9.73,745.51,4.81,738.79,0,732c0-2.33,0-4.67,0-7,3.51,4.61,7.01,9.22,10.92,14.35,4.79-3.43,9.44-6.76,15.04-10.77-2.97-2.43-5.43-6.06-7.52-5.87-7.77.73-11.75-3.55-15.07-9.28-2.3-3.97-1.99-8.03.63-11.75,2.63-3.75,6.43-5.24,10.91-4.56,7.02,1.06,13.76,11.54,10.86,18.01-2.38,5.3.03,7.87,3.61,11.09,4.6-3.22,9.06-6.34,13.44-9.41-.27-.91-.32-1.42-.55-1.84-4.32-7.67-4-10.92,1.55-15.12,6.85-5.19,9.8-4.85,16.16,1.48.75.74,2.7,1.07,3.66.64,1.74-.78,3.15-2.28,5.07-3.78-5.31-7.36-10.43-14.47-15.56-21.58-.6.31-1.19.62-1.79.94.73,2.36,1.63,4.69,2.11,7.1.18.89-.62,1.97-.97,2.96-.93-.46-2.2-.68-2.72-1.43-.94-1.34-1.24-3.12-2.17-4.46-.74-1.07-2.05-2.42-3.08-2.4-.88.02-1.99,1.69-2.52,2.85-.61,1.33-.51,2.98-1.1,4.33-.39.9-1.44,1.51-2.19,2.25-.6-1.01-1.38-1.97-1.73-3.06-.23-.71.35-1.65.23-2.44-.28-1.88-.75-3.73-1.14-5.6-1.71.94-3.42,1.87-5.13,2.81-1.7.94-3.38,1.89-5.08,2.83.53-1.83.93-3.71,1.64-5.47.58-1.45,1.54-2.74,2.33-4.1-.37-.32-.74-.64-1.11-.96-1.9,1.18-3.84,2.31-5.69,3.56C15.36,681.5,7.68,686.76,0,692c0-1.67,0-3.33,0-5Zm18.51,63.33c19.53-13.83,38.6-27.33,57.98-41.06-1.98-2.72-3.49-4.79-5.24-7.19-19.57,13.85-38.66,27.37-57.96,41.03,1.85,2.56,3.3,4.56,5.23,7.22Zm3.53-38.48c.16-4.23-5.19-10.45-9.03-10.5-3.53-.04-6.72,3.09-6.76,6.65-.05,3.81,5.31,10,8.88,10.26,3.47.25,6.78-2.82,6.91-6.41Zm28.38-39.34c-1.96-2.77-3.46-5.41-5.51-7.52-.89-.91-3.3-1.44-4.36-.89-2.71,1.43-5.05,3.56-7.58,5.45,5.28,5.43,10.2,6.28,17.45,2.96Zm-3.05,40.88c2.4-1.61,4.78-2.85,6.68-4.61,1.19-1.1,2.59-3.27,2.23-4.46-.83-2.74-3.19-4.14-6.29-3.18-6.6,2.03-7.77,6.56-2.62,12.25Z"/>
  <path class="cls-1" d="m0,748c9.24,12.83,18.5,25.65,27.72,38.5,4.17,5.82,8.43,11.59,12.29,17.62,2.47,3.85,4.62,4.14,8.34,1.45,16.87-12.19,33.93-24.13,50.92-36.16,6.52-4.62,12.94-9.41,19.62-13.8,3.42-2.25,3.94-4.29,1.55-7.65-23.65-33.26-47.25-66.55-70.78-99.89-2.41-3.41-4.25-4.06-7.97-1.36C27.94,656.7,13.92,666.27,0,676c0-1.67,0-3.33,0-5,13.58-9.63,27.12-19.3,40.75-28.86,4.77-3.34,8.13-2.68,11.46,2.02,23.85,33.7,47.68,67.41,71.48,101.14,4.82,6.83,4.56,8.96-2.36,13.89-24,17.1-48.08,34.1-72.18,51.07-4.96,3.49-8.35,2.58-12.48-3.24-10.32-14.52-20.51-29.14-30.81-43.67-1.81-2.55-3.9-4.9-5.87-7.34,0-2.67,0-5.33,0-8Z"/>
  <path class="cls-1" d="m0,401c26.3-5.63,50.45,7.54,60.1,32.77,1.67,4.38,7.37,7.64,12.08,6.91,8.69-1.34,10.19-.28,11.87,8.24,1.1,5.55,2.34,11.08,3.42,16.64,1.06,5.45-.78,8.21-6.13,9.45-7.04,1.64-10.6,6.01-10.38,13,.43,13.82-4.24,25.76-13.1,36.23-1.14,1.34-2.36,2.9-2.76,4.54-1.57,6.49-13.2,11.72-18.66,7.9-1.63-1.14-3.22-3.87-3.02-5.67.23-2.06,2.09-4.87,3.93-5.6,3.63-1.45,7.79-1.49,11.62-2.52,2.35-.63,5.15-1.46,6.63-3.17,7.97-9.22,11.36-20.16,11.06-32.31-.06-2.59-.83-3.97-3.49-5.12-2.09-.91-4.35-3.41-4.89-5.6-2.34-9.53-4.27-19.18-5.9-28.87-.36-2.13.37-5.49,1.87-6.67,2.86-2.26,2.33-4.33,1.41-6.95-6.84-19.52-28.96-32.77-49.73-29.8-1.97.28-3.96.4-5.94.59,0-1.33,0-2.67,0-4Zm71.44,74.12c-2.25-10.73-4.12-20.34-6.48-29.82-.26-1.06-3.39-2.02-5.1-1.89-1.2.09-3.35,2.33-3.18,3.27,1.74,9.79,3.74,19.55,6.08,29.22.24.99,3.18,1.96,4.77,1.82,1.45-.13,2.77-1.77,3.91-2.58Zm3.88-3.21c3.27-1.69,8.46.75,7.77-4.89-.83-6.75-2.32-13.45-4.11-20-.3-1.11-3.6-1.9-5.49-1.87-1.06.02-3.13,2.2-2.97,3.11,1.32,7.66,3.04,15.25,4.81,23.66Zm-35.1,61.47c3.16-.65,5.64-.94,7.94-1.74.92-.32,1.42-1.8,2.11-2.76-.94-.48-1.92-1.44-2.8-1.36-2.44.22-4.9.69-7.21,1.46-.99.33-1.64,1.66-2.45,2.53.93.72,1.85,1.43,2.41,1.86Z"/>
  <path class="cls-1" d="m0,34c6.74,6.64,14.13,12.08,23.94,13.13C51.02,50.03,70.36,26.08,62,0h5c4.02,16.44.65,30.9-12.44,42.04-4.32,3.67-10.12,5.56-15.08,8.54-2.09,1.25-4.55,2.86-5.47,4.92-7.96,17.78-15.57,35.72-23.4,53.56-.74,1.68-2.24,3.03-3.39,4.53-1.14-1.5-2.48-2.89-3.38-4.52C2.4,106.47,1.26,103.7,0,101c0-4,0-8,0-12,2.36,5.1,4.71,10.2,7.52,16.28,7.9-18.27,15.31-35.38,22.79-52.67q-8.92-1.62-11.9,5.3c-1.72,3.96-3.43,7.94-5.35,11.8-.42.84-1.72,1.23-2.62,1.82-.45-1.11-1.42-2.32-1.23-3.31.37-1.92,1.35-3.73,2.14-5.55,1.75-4.03,3.55-8.03,5.4-12.23-3.11-1.32-5.49-2.32-8.09-3.42C5.64,53.65,2.82,59.83,0,66c0-4,0-8,0-12C5.54,45.97,5.54,44.91,0,40v-6Z"/>
  <path class="cls-1" d="m1000,406c-15.97,2.73-31.24,19.1-33.99,36.49-.41,2.62-.71,5.28-.78,7.94-.09,3.64-.27,7.07,4.72,8.46,1.82.51,3.44,3.94,4.01,6.31,2.07,8.74,3.95,17.54,5.26,26.42.4,2.69-.46,7.27-2.22,8.19-3.17,1.66-7.43,1.49-11.25,1.58-2.59.06-5.26-1.32-7.79-1.07-6.32.62-8.52-.64-9.84-6.86-1.28-6.02-2.53-12.04-3.67-18.09-1.11-5.88.53-8.3,6.3-9.77,6.93-1.75,10.17-5.97,10.17-13.22,0-25.4,14.48-44.46,39.07-51.38v5Zm-24.33,88.95c-2.23-10.77-4.06-20.26-6.31-29.64-.28-1.16-2.74-2.38-4.28-2.51-2.52-.21-4.8,1.02-4.2,4.14,1.83,9.48,3.72,18.95,5.96,28.33.26,1.07,2.96,2.24,4.45,2.13,1.6-.11,3.09-1.67,4.38-2.45Zm-20.44,1.14c4.59-.24,7.19-.72,6.03-5.29-1.55-6.09-2.63-12.3-3.85-18.48-.46-2.3-1.34-3.71-4.01-2.81-2.2.74-5.49.33-4.74,4.21,1.25,6.5,2.51,13.01,4.08,19.44.33,1.35,1.99,2.37,2.5,2.93Z"/>
  <path class="cls-1" d="m1000,98c-1.48-2.94-2.95-5.89-4.81-9.59-6.15,2.41-12.41,4.87-18.67,7.32-1.08.42-2.15.99-3.28,1.17-1.36.22-2.78.09-4.17.12.07-1.39-.24-2.95.27-4.16,3.74-8.88,7.66-17.69,11.49-26.53,4.36-10.06,8.72-20.12,12.99-30.22.47-1.11.82-2.81.31-3.71C988.23,22.14,987.86,11.24,990,0,991.67,0,993.33,0,995,0c-.49,2.11-1.15,4.19-1.44,6.33-1.3,9.4-.03,18.2,6.44,25.67v8c-3.98-3-3.58,1.67-4.11,2.83-6.71,14.97-13.15,30.07-19.62,45.15-.34.8-.38,1.73-.7,3.24,6.35-2.46,12.12-4.47,17.69-6.95,3-1.33,5-.85,6.74,1.72v12Z"/>
  <path class="cls-1" d="m1000,677c-10.25,7.03-20.51,14.05-30.76,21.09-2.49,1.71-1.61,3.54-.21,5.51,7.21,10.16,14.34,20.39,21.55,30.55,3.07,4.33,6.27,8.57,9.42,12.85v7c-4.77-6.35-9.63-12.62-14.27-19.05-6.89-9.56-13.63-19.22-20.4-28.86-3.58-5.1-3.17-8.27,1.76-11.79,10.93-7.82,21.94-15.53,32.92-23.29v6Z"/>
  <path class="cls-1" d="m43,0c-2.53,6.14-5.1,12.26-7.56,18.43-.92,2.29-2,4.03,0,7.09,1.24,1.9-1.25,6.63-2.82,9.71-.42.82-3.82.81-5.47.19-5.44-2.06-10.68-4.64-16.05-6.9-2.55-1.07-3.34-2.76-2-5.1,1.82-3.17,1.75-7.93,7.48-8.02,1.2-.02,2.45-3.97,3.47-6.21.96-2.11,2.92-4.33-.32-6.42C19.13,2.39,19.22.95,19,0h5c3.01,1.37,3.68,3.41,2.21,6.44-1.88,3.89-3.3,8.01-5.35,11.79-.75,1.38-2.76,2.08-4.19,3.11-.85.61-2.24,1.17-2.35,1.91-.11.76.84,2.11,1.66,2.5,4.33,2.05,8.78,3.87,14.22,6.23-.11-2.17-.12-3.55-.26-4.91-.18-1.75-1.15-3.76-.58-5.18C32.38,14.51,35.75,7.28,39,0c1.33,0,2.67,0,4,0Z"/>
  <path class="cls-1" d="m62,999c-5.45-11.49-13.9-19.48-26.66-21.9-12.31-2.34-22.99,1.3-32.01,9.92-1.08,1.03-2.22,1.98-3.33,2.97,0-2,0-4,0-6,17.23-15.3,38.35-16.09,55.13-1.89,5.28,4.47,9.12,10.05,10.87,16.89h-4Z"/>
  <path class="cls-1" d="m552,0c-.48,1.41-.89,2.85-1.44,4.22-4.48,11.11-4.49,10.75-16.09,10.83-5.63.04-6.76-3.74-8.6-7.69C513.42,12.52,504.37,3.53,494,0h12c4.88,2.01,9.23,6.22,15.17,3.92,6.51-2.53,6.62-2.65,9.83,3.77,2.02,4.03,5.69,3.05,8.7,2.88,1.76-.1,3.92-1.93,4.97-3.57,1.29-2.01,1.6-4.63,2.34-6.99,1.67,0,3.33,0,5,0Z"/>
  <path class="cls-1" d="m1000,693c-4.79,3.24-9.58,6.48-15.05,10.18,5.2,7.2,10.12,14.01,15.05,20.82v7c-6.43-8.76-12.93-17.48-19.18-26.37-.59-.84-.08-3.52.79-4.15,6-4.34,12.23-8.36,18.39-12.48,0,1.67,0,3.33,0,5Z"/>
  <path class="cls-1" d="m20,999c1.04-5.56,4.12-8.69,10.02-8.99,2.96-.15,5.87-1.15,8.83-1.47,6.13-.65,8.46,2.55,6.08,8.15-.32.76-.63,1.54-.94,2.31h-5c.7-1.75,1.4-3.51,2.55-6.39-4.96.85-8.88,1.17-12.55,2.31-1.6.5-2.69,2.67-4,4.08h-5Z"/>
  <path class="cls-1" d="m991,999c3-4.67,6-9.33,9-14v14h-9Z"/>
  <path class="cls-1" d="m1000,68c-.92,1.54-1.71,3.19-2.82,4.58-.61.76-1.77,1.07-2.68,1.58-.36-1.1-1.31-2.45-.97-3.26,1.99-4.7,4.28-9.28,6.47-13.9v11Z"/>
  <path class="cls-1" d="m300.28,260.36c4.91,1.34,10.7,2.9,16.46,4.5,31.61,8.75,63.21,17.51,94.82,26.27.96.27,1.91.57,2.87.88,6.16,1.98,7.63,4.57,5.88,10.92-6.81,24.71-13.68,49.41-20.52,74.11-1.78,6.41-3.52,12.84-5.35,19.24-2.15,7.53-4.45,8.88-12.01,6.79-24.39-6.74-48.76-13.55-73.14-20.35-12.51-3.49-25.01-7.01-37.5-10.54-6.28-1.78-7.66-4.32-5.89-10.71,8.54-30.98,17.09-61.95,25.61-92.93,1.15-4.2,2.47-8.13,8.77-8.18Zm84.45,87.96c-6.3-1.71-11.79-3.02-17.16-4.74-3.11-1-4.96-.56-7.1,2.22-5.6,7.28-13.36,9.72-22.26,7.9-7.99-1.63-14.57-6.59-15.63-14.37-1.18-8.67-6.07-10.62-12.93-11.83-2.28-.4-4.52-1.16-6.7-1.97-2.86-1.05-4.44-.21-5,2.79-.31,1.63-.81,3.23-1.25,4.84-3.5,12.65-7,25.29-10.55,38.11,1.49.61,2.52,1.15,3.6,1.45,23.89,6.67,47.78,13.39,71.71,19.95,10.19,2.79,10.25,2.65,13.12-7.68,3.34-12.01,6.65-24.02,10.15-36.68Zm-71.51-25.29c6.79,3.86,6.96,3.25,10.9-1.83,3.11-4.01,7.4-7.93,12.01-9.78,14.16-5.67,30.83,6.39,28.87,22.68-.53,4.43,2.07,4.86,5.08,5.62,3.61.91,3.73-1.86,4.33-3.98,3.96-14.1,7.8-28.23,11.81-42.32.75-2.62.91-4.43-2.26-5.3-17.65-4.88-35.26-9.88-52.94-14.63-1.18-.32-3.82.8-4.11,1.75-4.73,15.93-9.19,31.93-13.68,47.8Zm-4.37-.37c4.86-17.52,9.5-34.26,14.26-51.43-7.49-2.03-14.27-3.69-20.93-5.76-3.64-1.13-5.15.07-6.08,3.5-3.86,14.13-7.9,28.22-11.81,42.34-.38,1.36-.39,2.83-.59,4.42,8.43,2.32,16.42,4.53,25.16,6.94Zm94.19,26.13c4.63-16.55,9.15-32.48,13.38-48.48.26-.97-1.5-3.3-2.75-3.71-5.98-1.99-12.14-3.47-18.19-5.27-2.88-.86-4.26.07-5.04,2.93-3.95,14.59-8.08,29.13-11.93,43.75-.33,1.24.69,3.92,1.63,4.22,7.38,2.37,14.89,4.33,22.89,6.57Zm-120.98-28.83c-.81,2.58-1.5,4.6-2.07,6.66-2.97,10.75-5.8,21.54-8.89,32.25-2.36,8.18-2.49,8.14,5.86,10.34.32.08.64.17.96.29,2.84,1.01,4.21-.03,4.99-2.93,3.42-12.7,7.03-25.35,10.52-38.03.46-1.68.62-3.44.94-5.31-4.24-1.13-7.92-2.1-12.31-3.27Zm93.95,76.41c3.05.97,5.61,1.65,8.06,2.6,3.52,1.36,5.12.12,6.03-3.41,1.97-7.72,4.28-15.35,6.41-23.03,1.75-6.33,3.44-12.69,5.29-19.51-4.54-1.19-8.45-2.21-12.83-3.36-4.43,15.96-8.66,31.24-12.95,46.7Zm-32.82-46.45c9.8-.1,17.82-8.16,17.73-17.83-.09-9.71-8.37-17.93-17.88-17.74-10,.2-17.95,8.42-17.79,18.4.15,9.33,8.44,17.27,17.94,17.17Z"/>
  <path class="cls-1" d="m558.63,175.28c-11.43,7.96-12.92,13.71-7.61,25.3.57,1.24-.45,4.17-1.67,5.13-18.3,14.45-46.31,7.62-56.38-13.6-7.05-14.86-4.03-32.46,7.35-43.31,1.9-1.81,3.36-2.69,5.94-.77,9.75,7.26,17.02,6.15,25.39-3.57-3.22-6.33-2.9-8.45,1.84-12.52,4.56-3.9,6.55-3.86,12.26.28,10.36-5.56,13.3-14.71,7.57-24.42-1.48-2.5-.99-3.91,1.06-5.43,11.7-8.68,24.55-10.37,37.77-4.79,13.66,5.77,21.43,16.57,22.77,31.5,1.04,11.62-2.69,21.71-11.08,29.83-1.13,1.09-4.21,1.74-5.36,1-10.89-7.03-17.21-6.32-26.24,3.69,7.39,8.68,14.78,17.43,22.24,26.12,9.11,10.61,18.28,21.17,27.41,31.76,3.34,3.88,2.93,7.41-1.23,11.21-4.87,4.44-8.32,4.72-11.99.5-12.45-14.32-24.76-28.76-37.14-43.14-4.22-4.9-8.5-9.75-12.9-14.79Zm-12.2,26.68c-3.42-6.98-4.31-14.3.16-21.24,1.86-2.9,1.23-4.64-.8-6.89-4.13-4.57-8.12-9.27-11.95-14.09-.69-.87-.33-2.59-.45-3.91,1.18.32,2.57.34,3.48,1.02,1.3.98,2.25,2.43,3.34,3.69,3.91,4.49,7.83,8.98,11.97,13.73,6.33-5.38,12.28-10.42,18.21-15.48,11.27-9.61,17.35-10.31,30.26-3.4.4-.22.91-.38,1.25-.72,11.29-11.15,11.76-30.71,1.08-43.88-10-12.32-29.81-15.77-42.52-7.17-1.1.74-1.94,3.44-1.47,4.68,2.64,6.89,2.12,13.26-1.46,19.7-.74,1.33-.33,4.16.66,5.45,3.85,5.01,8.23,9.61,12.21,14.52.72.89.47,2.56.67,3.87-1.16-.21-2.52-.12-3.43-.72-1.21-.8-2.09-2.12-3.08-3.25-4.11-4.7-8.21-9.42-12.51-14.35-7.44,6.38-14.38,12.34-21.32,18.29-5.13,4.4-11.09,6.25-17.65,4.81-3.33-.73-6.4-2.62-9.63-4.01-12.18,9.92-13.19,31.53-2.03,44.6,11.45,13.41,32.96,15.82,45.03,4.74Zm15.7-29.57c16.31,19,32.47,37.81,48.6,56.63,1.93,2.26,3.65,3.74,6.55,1.02,2.79-2.62,2.23-4.67.03-7.21-14.7-17.01-29.3-34.11-43.99-51.13-5.12-5.94-5.19-5.87-11.19.68Zm-19.79-36.54c-3.89-4.02-5.67-.56-7.58,1.19-.53.48-.09,2.01-.1,3.06,1-.03,2.25.32,2.96-.15,1.6-1.05,2.93-2.5,4.72-4.1Z"/>
  <path class="cls-1" d="m826.45,860.71c-7.24,8.5-14.35,16.85-21.45,25.2-9.06,10.65-18.06,21.35-27.18,31.95-4.37,5.08-7.45,5.27-12.27,1.15-5.25-4.49-5.59-7.34-1.15-12.61,15.25-18.06,30.56-36.06,45.84-54.09.84-.99,1.59-2.07,2.34-3.05-6.86-9.57-16.52-11.06-25.38-3.89-2.17,1.76-3.52,1.61-5.52-.16-14.49-12.84-15.82-36.88-2.78-52.01,13.13-15.23,37.35-17.72,51.71-5.16.97.85,1.58,3.32,1.07,4.46-5.21,11.56-3.81,16.97,6.9,25.09,7.79-4.24,9.34-4.1,14.28.71,3.75,3.65,3.19,7.33.4,11.1,7.44,9.64,16.13,11.11,25.42,4,2.83-2.16,4.38-1.09,6.31.89,10.66,10.93,13.7,23.97,9.16,38.22-4.5,14.12-14.65,22.75-29.37,25.48-10.54,1.95-20.22-.52-28.8-6.82-1.21-.89-2.2-3.85-1.63-5.08,5.2-11.16,3.37-17.98-7.92-25.38Zm26.72-24.63c-7.35-6.23-14.33-12.09-21.24-18.04-7.56-6.51-9.69-14.55-5.97-23.79,1.17-2.91.36-4.09-2.05-5.49-18.7-10.82-43.21-.42-48.69,20.55-3.2,12.25,2.09,27.32,9.55,31.79,5.93-4.1,12.55-6.63,19.6-3.46,4.4,1.98,6.6.59,9.12-2.72,3.43-4.5,7.17-8.76,11.01-12.92.71-.77,2.49-.56,3.78-.8-.18,1.19-.09,2.51-.61,3.52-.67,1.3-1.82,2.36-2.79,3.51-3.95,4.68-7.92,9.34-12.12,14.3,7.17,6.13,13.93,12.02,20.81,17.78,7.77,6.51,10.13,14.64,6.36,24.08-1.15,2.87-.52,4.19,2.01,5.5,12.37,6.38,24.39,5.89,35.87-1.96,16.8-11.48,18.69-38.4,3.43-50.53-7.06,5.16-14.68,6.32-22.95,2.61-.91-.41-3.04.71-3.97,1.71-3.61,3.91-6.81,8.22-10.5,12.04-1.59,1.65-4.01,2.49-6.06,3.7.85-2.08,1.31-4.47,2.64-6.17,3.96-5.09,8.26-9.9,12.75-15.21Zm-36.6,15.54c-7.35,8.72-14.37,17.1-21.45,25.43-8.93,10.52-17.84,21.05-26.91,31.45-2.72,3.12-2.6,5.37.83,7.71,3.08,2.1,4.55-.12,6.16-2.01,11.31-13.29,22.59-26.61,33.88-39.92,4.69-5.53,9.36-11.08,14.22-16.83-2.36-2.05-4.32-3.75-6.73-5.83Zm32.49-24.87c3.44-3.09,1.47-5.03-.72-6.33-1.33-.79-3.29-.54-4.96-.75l-.42,1.73c1.94,1.71,3.88,3.41,6.09,5.35Z"/>
  <path class="cls-1" d="m129.65,245.27c-.82,6.89-4.77,8.37-11,4.83-1.07,2.96-1.95,5.38-3.04,8.38,6.97,1.27,9.12,4.9,5.46,10.71q7.64,4.52,5.66,11.29c2.28,1.64,6.59,3.39,6.52,4.95-.19,4.16-1.32,8.93-3.78,12.18-4.52,5.99-9.19-.52-13.64-1.47-5.92-1.26-1.57-5.87-1.59-9.39-1.04-.5-2.14-1.23-3.35-1.59-3.27-.97-4.09-2.75-2.89-6.03.49-1.32-.06-4.38-.62-4.51-6.64-1.51-5.89-5.56-3.32-10.57-2.74-1.09-5.13-2.04-8.25-3.28-1.17,7.03-4.93,9.24-10.92,5.72-4.58,8.24-4.55,8.17-15.89,3.64-2.83-1.13-3.92-2.43-2.98-5.6,3.54-11.96,3.52-12.04,12.84-10.47.53-1.09,1.27-2.21,1.62-3.44.88-3.12,2.61-3.71,5.65-2.77,1.49.46,3.36-.33,5.05-.55-1.08-1.15-1.95-2.79-3.27-3.36-3.3-1.4-4.25-3.18-2.72-6.59.48-1.07-.21-3.9-.78-4.02-6.83-1.47-5.48-5.75-3.21-10.73-6.24-1.52-9.8-4.49-5.37-10.96-1.57-.79-2.67-1.61-3.89-1.92-3.48-.89-3.7-2.96-2.99-6.05.34-1.45-.32-4.41-1.1-4.62-5.27-1.45-5.53-4.46-3.45-8.65.2-.4.03-.97.03-1.85-1.02-.47-2.16-1.1-3.37-1.54-2.86-1.03-4.14-2.85-2.73-5.76,1.49-3.08,1-4.98-2.56-5.82-3.08-.72-3.92-2.63-2.76-5.64,1.62-4.19,3.13-8.43,4.53-12.7,1.03-3.13,3.03-3.64,5.83-2.58,3.58,1.36,7.09,2.98,10.77,3.98,4.32,1.17,5.93,3.25,3.84,7.51-.35.72-.44,1.57-.78,2.86,5.07,1.68,10.02,3.73,4.91,10.87,5.99,2.03,10.41,4.86,5.35,11.93,7.08,1.5,9.62,4.95,5.42,11.08,1.56.74,2.54,1.37,3.62,1.68,3.16.91,4.53,2.76,3.2,5.95-1.31,3.16-.6,5.05,2.92,5.77,2.92.6,3.77,2.39,2.62,5.19-.5,1.21-.75,2.52-1.21,4.1,1.27.63,2.37,1.34,3.58,1.75,3.18,1.06,4.21,2.93,2.76,6.1-1.08,2.36-1.58,4.63,2.76,5.09,1.35-5.78,4.13-9.86,10.61-5.13,5.27-8.3,6.54-8.39,17.36-3.3,3.25,1.53,2.26,3.51,1.53,5.73q-3.75,11.34-13,9.6Zm-50.67-28.16c7.35.92,8.27,5.13,5.19,10.63,3.15,2.5,9.4,1.88,6.53,8.32-.49,1.09.3,2.75.5,4.14,1.21-.94,3.08-1.65,3.5-2.87,1.19-3.45,2.92-4.38,6.4-3.08,1.23.46,2.99-.48,4.51-.79-.95-1.08-1.71-2.75-2.88-3.13-3.83-1.23-4.56-3.38-2.99-6.85.44-.97.34-2.19.52-3.54-4.74-1.28-8.79-2.86-5.67-8.92.3-.58-1.27-2.92-2.35-3.25-4.05-1.26-4.88-3.49-3.11-7.15.41-.85.4-1.89.72-3.56-7.75-.45-7.86-5.08-5.02-11.19-7.77-.96-8.79-5.1-5.51-10.69q-7.07-4.02-5.79-12.13c-3.73-1.34-7.56-2.71-11.84-4.25-1.56,4.37-2.92,8.21-4.5,12.64,7.21,1.09,9.18,4.75,5.52,10.66,1.05.65,1.57,1.14,2.17,1.31,4.28,1.19,6.18,3.32,4.09,7.99-.35.79,1.44,3.45,2.71,3.89,3.53,1.23,4.45,3.02,2.91,6.38-.52,1.12-.57,2.46-.81,3.62q7.19,3.38,5.2,11.82Zm-4.91,40.66c-.69.8-1.24,1.13-1.3,1.54-.37,2.54-4.11,5.24.41,7.6,4.07,2.12,6.31.99,7.78-3.33.34-.99,3.42-2.05,4.59-1.55,3.59,1.53,5.26.4,6.19-3,.9-3.3,3.04-3.38,5.81-2.31,3.84,1.48,7.76,2.75,12.14,4.28,1.58-4.22,3.13-8.03,4.43-11.93,1.1-3.28,2.77-4.82,6.23-2.96,2.64,1.42,4.4.81,5.15-2.25.94-3.85,3.29-4.58,6.75-3.05.99.44,2.16.45,3.16.65,3.82-8.03,3.49-8.66-5.33-10.04-.96,6.89-5.28,7.75-10.83,5.06-.62,1.08-1.11,1.62-1.25,2.23-1.17,4.99-3.89,6.12-8.27,3.48-.7-.42-1.54-.61-2.33-.87-9.25-3.1-7.84-4.24-11.21,5.3-2.74,7.77-2.63,7.81-10.54,6.17-.26-.05-.6.23-1.37.54-.81,6.68-4.91,7.46-10.22,4.45Zm32,10.85q8.16,4.03,6.68,12.35c6.2,1.21,8.89,4.54,4.61,11,2.99,1.19,5.37,2.14,8.26,3.29,1.11-2.97,2.06-5.51,3.23-8.65-8.07-.7-8.56-5.07-5.4-11.08-5.67-1.4-9.27-3.7-6.04-9.78.2-.37-1.82-2.56-2.08-2.43-2.89,1.44-5.64,3.16-9.25,5.3Z"/>
  <path class="cls-1" d="m674.42,626.41c1.39,0,2.54.09,3.67-.02,3.33-.32,4.85,1.02,5.08,4.47.09,1.39,1.35,3.6,2.46,3.86,6.18,1.49,6.22,1.33,7.52,7.96,3.43,1.18,4.08-.76,3.83-3.53-.31-3.5.93-5.47,4.72-5.21,2.98.2,3.82-1.58,3.5-4.1-.55-4.35,1.82-5.5,5.58-5.6,13.66-.37,11.85-1.94,12.62,10.89.24,3.99-.12,6.7-4.81,6.62-2.96-.05-3.77,1.55-3.45,4.13.44,3.52-.87,5.42-4.64,5.22-3.84-.21-3.49,2.48-3.59,5.07-.12,3.16,1.39,4.21,4.25,3.83,3.59-.47,5.22.95,5.27,4.66.02,1.15,1.03,3,1.99,3.32,6.77,2.26,6.8,2.16,8.16,8.1q7.97,1.66,8.97,10.24c.84,7.17.67,7.38-6.75,8.12-1.66.17-3.32.23-4.97.44-3.61.46-5.94-.64-5.83-4.71.09-3.16-1.59-4.16-4.41-3.69-3.47.58-5.07-.83-4.87-4.32.17-2.93-1.08-4.46-4.14-4-3.55.53-5.55-.82-5.41-4.52.15-3.74-2.14-3.73-4.89-3.72-2.87.02-4.42.86-4.08,4.03.36,3.32-.66,5.57-4.58,5.39-3.19-.15-4,1.76-3.66,4.51.47,3.79-1.49,4.98-4.95,5.06-14.51.33-12.33,2.36-13.19-11.75-.21-3.39.52-5.56,4.42-5.47,3,.07,4.16-1.51,3.79-4.41-.46-3.64,1.32-5.05,4.84-5.32,1.2-.09,2.3-1.56,3.45-2.4-1.17-.59-2.43-1.83-3.5-1.68-6.93.99-5.25-4.77-6.49-8.52-1.41,0-2.7-.07-3.99.01-2.78.18-4.6-.71-4.46-3.85.16-3.34-1.17-5.03-4.71-4.49-3.4.52-4.74-1.05-5.1-4.4-.14-1.34-1.93-3.66-2.75-3.57-5.3.58-6.84-2.03-6.65-6.68.02-.59-.42-1.19-.68-1.89-.95,0-1.77-.11-2.56.02-3.85.61-6.21-.58-6.13-4.87.05-2.8-1.32-3.92-4.05-3.52-3.61.52-5.4-1.1-5.26-4.71.12-2.98-1.49-3.79-4.07-3.49-4.01.47-5.32-1.63-5.34-5.28-.02-2.66-.43-5.31-.55-7.97q-.39-8.4,7.81-9.17c2.32-.21,4.66-.23,6.98-.49,4.32-.48,7.7-.07,7.38,5.68-.04.74,2.2,2.33,3.34,2.29,3.94-.15,5.85,1.09,5.97,5.33.03,1.15,2.34,3.19,3.56,3.17,3.87-.09,6.19.78,5.89,5.18-.22,3.18,1.96,3.5,4.3,3.23,3.41-.39,4.84.96,4.97,4.43.05,1.28,1.2,3.31,2.26,3.63,6.64,1.98,6.68,1.85,7.93,8.49Zm-36.13-7.05c3.41,1.45,8.79-1.83,8.7,4.55-.05,3.71,1.66,4.66,4.9,4.22,3.33-.45,4.57,1.33,4.45,4.36-.13,3.22,1.13,4.69,4.48,4.01,3.42-.69,5.21.9,5.07,4.26-.15,3.39,1.35,4.48,4.48,4.08,3.33-.42,4.88.92,4.95,4.45.02,1.24,1.5,2.45,2.31,3.68.75-1.36,2.14-2.73,2.12-4.08-.06-3.35,1.05-4.88,4.52-5.04,1.28-.06,2.49-1.4,3.74-2.16-1.33-.8-2.63-2.22-3.99-2.28-3.09-.12-5.33-.6-5.06-4.37.24-3.37-1.55-4.4-4.62-4.02-3.35.41-4.96-1.16-5.03-4.51-.02-1.11-.35-2.21-.54-3.4-.89-.11-1.56-.34-2.18-.25-4.54.66-6.92-.82-6.82-5.85.02-.86-2.64-2.55-4.02-2.51-3.39.1-5.14-.89-4.95-4.43.18-3.43-1.72-4.3-4.73-3.94-2.98.35-5.02-.73-4.87-4.02.18-3.66-1.62-4.69-4.89-4.27-3.33.43-4.46-1.33-4.47-4.39,0-1.27-.42-2.53-.63-3.71-13.12-1.05-13.81-.34-12.17,12,.06.44.45.84.86,1.56,4.89-.9,8.99-.44,8.54,6.29-.04.56,2.22,1.91,3.27,1.78,4.02-.51,6.07.84,6.09,5.01,0,.96.31,1.92.49,2.96Zm79.76,9.76c-7.2-.99-7.04-.96-8.2,5.44-.23,1.28-2.01,2.59-3.37,3.27-1.35.68-3.09.58-4.53.8q-.66,8.6-8.87,9.19c-.17.01-.33.02-.5.03q-8.21.52-7.75,8.91.47,8.62-7.14,9.95c-.26.04-.45.45-.79.81-1.12,2.83,2.24,8.32-4.49,8.27-3.03-.02-4.72.85-4.05,4.41.48,2.58.45,4.89,4.22,4.64,3.24-.22,5.15-1.11,4.6-4.71-.53-3.49,1.23-4.85,4.48-5,1.25-.06,2.49-.41,3.71-.63.84-3.74-1.5-8.91,5.35-8.78,3.87.07,9.35.3,11.21-1.94,1.92-2.32.52-7.55.25-11.49-.24-3.46.65-5.55,4.53-5.33,3.29.19,4.18-1.41,4.12-4.6-.03-1.49,1.34-3.92,2.63-4.37,6.25-2.23,6.42-2.24,4.6-8.88Zm3.25,45.07c-3.68-1.37-6.71-1.81-8.72-3.47-1.4-1.16-1.42-3.99-2.06-6.07-1.53,1.44-3.12,2.82-4.56,4.35-.89.94-1.54,2.11-2.3,3.17,1.25.51,2.5,1.46,3.74,1.44,3.33-.05,5.65.73,5.43,4.62-.19,3.22,1.61,4.1,4.37,3.74,3.43-.45,5,.95,4.9,4.41-.08,2.51.7,3.97,3.74,3.88,5.54-.15,6.47-1.89,4-9.19-6.58,1.85-8.99-1.55-8.52-6.88Z"/>
  <path class="cls-1" d="m868.92,245.96c6.93,5.02,13.65,9.88,20.3,14.7,7.48-4.88,14.16-3.63,19.56,3.74.91,1.24,1.85,3.39,1.38,4.56-1.75,4.3-.12,8.18.27,12.32.29,3.06-1.51,6.79-3.4,9.5-8.58,12.27-17.52,24.3-26.34,36.4-5.66,7.77-14.88,9.55-22.36,4.33-6.86-4.79-8.25-14.02-3.25-21.73,1.45-2.23,3.14-4.32,4.45-6.63.48-.85.62-2.45.13-3.14-.46-.63-1.97-.51-3.03-.71-2.3-.43-5.06-.19-6.83-1.41-8.5-5.85-16.82-11.96-24.98-18.28-1.72-1.33-2.51-3.87-3.67-5.89-.52-.9-.81-2.6-1.37-2.68-1.09-.15-2.68.25-3.4,1.03-1.79,1.94-3.18,4.26-4.8,6.37-5.08,6.66-14.27,8.43-20.93,4.07-6.78-4.44-9.33-14.28-4.56-21.22,9.61-13.98,19.74-27.61,29.78-41.29,1.01-1.38,2.78-2.62,4.42-3.04,4.73-1.2,9.46-2.08,14.16-3.71,3.21-1.11,9.22,3.35,12.75,6.65,1.95,1.82,1.34,6.36,1.89,9.67-.56.23-1.13.47-1.69.7,5.61,4.09,11.21,8.17,17.18,12.52,1.18-1.3,2.32-2.43,3.31-3.68,3.88-4.94,6.76-5.43,11.8-1.88,1.22.86,2.46,1.72,3.59,2.7,2.53,2.18,4.61,2.16,6.6-.79,1.91-2.83,1.37-4.69-1.42-6.59-4.95-3.36-9.75-6.96-14.53-10.56-4.77-3.59-5.16-6.93-1.57-11.91,3.68-5.1,6.84-5.75,11.74-2.4,1.24.85,2.54,1.62,3.68,2.59,2.68,2.29,4.86,2.27,7.13-.72.78-1.03,2.57-1.28,3.9-1.89-.17,1.47.12,3.21-.58,4.36-3.3,5.43-6.72,6.06-12.04,2.52-1.25-.83-2.49-1.69-3.63-2.65-2.73-2.32-4.79-2.06-6.98.97-2.37,3.26-.42,4.85,1.84,6.48,4.59,3.31,9.25,6.52,13.85,9.82,5.29,3.8,5.88,7.12,2.26,12.15-3.95,5.48-7.29,6.14-12.59,2.47-.41-.28-.78-.63-1.18-.93-6.42-4.72-6.89-4.61-10.83,3.1Zm-.77,85.08c2.86-1.99,6.44-3.44,8.45-6.08,9.39-12.3,18.38-24.9,27.45-37.44,3.44-4.76,3.05-8.18-1.56-11.56-24.04-17.59-48.11-35.15-72.24-52.62-5.71-4.13-8.88-3.52-13.06,2.08-4.38,5.87-8.67,11.8-12.97,17.73-4.69,6.47-9.5,12.86-13.97,19.48-3.7,5.48-2.55,12.32,2.21,15.67,4.97,3.5,11.43,2.52,15.56-2.47,1.8-2.18,3.05-4.97,5.21-6.64,2-1.55,5.27-3.2,7.25-2.55,2.27.75,3.81,3.9,5.51,6.14.93,1.22,1.2,3.12,2.33,3.98,7.56,5.72,15.23,11.31,22.99,16.77,1.15.81,3.14,1.26,4.44.87,3.61-1.06,6.33.56,7.54,3.24.98,2.17.86,5.43-.03,7.71-1.18,3.02-3.85,5.42-5.43,8.33-4.09,7.56,1.22,16.45,10.31,17.37Zm-34.97-112.98l.03,1.93c2.66,1.95,5.25,4.01,8.02,5.79.72.46,1.98.09,2.99.1-.1-1.17.25-2.81-.38-3.42-1.89-1.82-4.04-3.52-6.37-4.7-1.09-.56-2.83.16-4.28.31Zm60.3,45.78c4.04,2.89,7.33,5.25,10.63,7.61,3.43-2.74,1.4-4.76-.76-5.86-2.73-1.39-4.93-6.52-9.87-1.75Z"/>
  <path class="cls-1" d="m239.34,95.87c6.19-3.44,12.25-6.81,18.49-10.27-.52-1.4-.83-2.5-1.32-3.51-3.53-7.19-2.67-9.49,4.63-13.41,1.95-1.05,4.28-2.41,5.09-4.23.53-1.18-1.02-3.82-2.33-5.07-.73-.7-3.11-.34-4.37.29-5.51,2.75-10.83,5.87-16.31,8.69-5.23,2.7-8.36,1.68-11.18-3.35-3.3-5.89-2.67-8.91,2.57-12.15,1.13-.7,2.3-1.36,3.5-1.92,3.3-1.55,5.18-3.43,2.74-7.29-.57-.91.09-2.6.19-3.94,1.12.62,2.66.96,3.3,1.91,3.88,5.76,3.02,9.06-3.03,12.61-1.29.76-2.6,1.51-3.96,2.13-2.97,1.35-3.24,3.28-1.82,6.05,1.46,2.84,3.19,3.47,6,1.89,5.22-2.95,10.49-5.8,15.8-8.6,5.87-3.1,8.68-2.24,11.82,3.43,3.18,5.74,2.44,8.7-3,12-.57.34-1.17.64-1.75.97-6.76,3.75-6.87,4.42-1.59,10.93,6.78-3.67,13.68-7.31,20.42-11.21.81-.47,1.33-2.52,1.06-3.61-1.02-4.21.24-7.16,4.05-9.13,2.22-1.15,4.31-2.61,6.64-3.46,1.62-.58,4.34-1.17,5.17-.34,3.96,3.94,9.3,4.25,13.97,6.28,1.91.83,3.51,3.06,4.6,5.01,7.45,13.39,14.77,26.85,22.05,40.33,4.76,8.81,2.74,17.99-4.75,22.3-7.92,4.56-17.35,1.47-22.48-7.38-1.09-1.87-2.01-3.86-3.29-5.59-.58-.78-1.91-1.53-2.79-1.42-.72.09-1.3,1.46-1.9,2.29-1.29,1.78-2.15,4.26-3.88,5.26-9.36,5.43-18.86,10.62-28.48,15.58-1.62.84-4.03.12-6.07.16-1.06.02-2.53-.27-3.06.29-.58.61-.69,2.21-.33,3.1,1,2.46,2.36,4.77,3.58,7.14,4.04,7.85,1.4,17.07-6.06,21.19-7.19,3.97-16.61,1.54-20.83-5.96-7.94-14.07-15.52-28.34-23.2-42.55-.62-1.15-1.2-2.46-1.32-3.73-.59-6.5,3.19-12.32,2.95-19.04-.08-2.16,6.14-4.75,9.69-6.78,4.73-2.69,7.74.56,10.78,4.11Zm99.73,18.84c-.32-.89-.81-3.02-1.8-4.87-7.23-13.5-14.5-26.98-21.9-40.39-3.32-6.02-6.1-6.62-12.29-3.25-11.55,6.28-23.12,12.55-34.67,18.83-14.48,7.88-28.97,15.73-43.42,23.66-5.03,2.76-6.41,5.77-4.09,10.1,7.61,14.24,15.31,28.44,23.28,42.48,3.3,5.82,9.84,7.49,15.08,4.6,5.27-2.91,7.04-9.1,4.19-15.17-1.27-2.71-3.4-5.16-4.03-7.98-.51-2.28-.15-5.73,1.3-7.19,1.63-1.63,4.9-1.72,7.5-2.24,1.63-.32,3.62.34,4.97-.36,8.28-4.28,16.46-8.76,24.58-13.34,1.28-.72,2.79-2.23,2.95-3.52.48-4.02,3.32-5.79,6.4-5.75,2.37.03,5.2,1.79,6.93,3.62,2.11,2.24,3.14,5.46,4.91,8.07,2.67,3.96,8.06,5.79,12.33,4.46,4.66-1.45,7.72-5.58,7.78-11.76Zm-37.92-52.59c-.92-1.18-1.8-2.6-1.99-2.51-3.6,1.65-7.14,3.45-10.62,5.36-.17.1.11,1.68.59,2.13.44.41,1.59.53,2.16.25,3.21-1.59,6.34-3.33,9.86-5.22Zm-66.36,36.32c-.16-.53-.33-1.05-.49-1.58-1.13-.45-2.32-1.38-3.36-1.23-1.4.2-2.8,1.07-3.99,1.95-1.92,1.41-5.73,1.53-4.24,5.31.12.3,3.87-.66,5.85-1.3,1.4-.46,2.64-1.39,3.96-2.08.74-.39,1.51-.72,2.27-1.07Z"/>
  <path class="cls-1" d="m580.7,776.13c3.66-11.67,3.65-11.8,15.7-12.01,3.48-.06,4.15-1.74,4.35-4.6.21-3.08-1.27-4.15-4.08-4.33-5.98-.39-11.95-.86-17.93-1.37-6.19-.52-8.23-2.87-7.95-8.99.32-6.81,2.33-8.85,8.66-8.76,1.5.02,3.01.01,4.49.21,3.37.44,5.37-.49,5.73-4.3.12-1.22,1.68-2.3,2.58-3.45.54,1.26,1.53,2.5,1.56,3.77.16,6.11-2.67,8.79-8.86,8.65-1.66-.04-3.34-.13-4.98-.36-2.71-.39-4.54.19-4.88,3.36-.34,3.17.42,5.14,4.03,5.39,6.14.42,12.27,1.02,18.4,1.58,6.11.56,8.02,3.25,7.42,10.41-.43,5.17-3.21,7.47-8.71,7.18-1.66-.09-3.34-.13-4.98-.38-3.95-.61-4.77,1.74-5.16,4.94-.46,3.86,2,3.86,4.65,4.03,5.65.38,11.3.76,16.92,1.4,2.81.32,4.42.05,5.66-3.11.78-1.98,3.56-3.93,5.76-4.42,2.98-.66,6.3-.11,9.42.28,3.5.44,5.44,2.64,6.36,6.13.49,1.85,2.07,3.38,2.95,5.16,1.63,3.28,4.54,6.7,4.4,9.95-.72,16.12-2.06,32.23-3.59,48.3-.9,9.46-7.98,15.08-17.09,14.41-8.16-.6-13.81-7.47-13.69-16.66.04-2.66.29-5.33.16-7.99-.05-.99-.7-2.37-1.49-2.77-.64-.32-1.88.57-2.86.92-2.23.78-4.49,2.3-6.68,2.18-10.3-.53-20.6-1.36-30.86-2.43-2.05-.21-3.95-1.88-5.91-2.91-.94-.49-2.1-1.71-2.68-1.47-1,.42-2.11,1.64-2.32,2.69-.59,2.92-.47,5.99-1.11,8.89-1.97,8.99-8.63,13.68-17.49,12.58-7.68-.96-13.49-7.83-12.97-16.38.97-15.95,2.33-31.87,3.66-47.79.4-4.76,2.42-8.52,7.27-10.46,1.24-.5,2.37-2.2,2.82-3.59,1.37-4.16,4.09-5.85,8.34-5.44,2.15.21,4.32.36,6.48.48,4.05.22,6.41,2.16,7.16,6.27.22,1.21,1.31,3.11,2.18,3.21,6.4.74,12.84,1.11,19.12,1.59Zm-52.69,54.1c0-.2,0,.14,0,.47-.22,7.77,3.86,13.02,10.34,13.31,6.91.31,11.2-4.02,11.85-11.9.2-2.48.33-5,.82-7.43,1.02-5.1,8.15-8.07,11.17-4.2,3.01,3.85,6.63,3.79,10.39,4.17,7.94.8,15.91,1.4,23.88,1.88,1.29.08,3.04-.5,3.88-1.42,2.64-2.89,6-3.12,8.51-1.13,1.97,1.56,3.19,4.72,3.67,7.36.52,2.86-.47,5.96-.33,8.93.29,5.91,4.97,10.52,10.52,10.73,5.9.22,10.89-4.05,11.45-10.26,1.4-15.57,2.68-31.16,3.86-46.75.47-6.2-1.62-8.61-7.78-9.13-29.83-2.55-59.66-5.02-89.5-7.49-5.56-.46-8.43,1.91-8.93,7.58-1.32,14.91-2.52,29.84-3.81,45.29Zm101.48-50.18c.33-.64.66-1.28,1-1.92-1.31-.91-2.58-2.51-3.95-2.59-2.95-.18-5.94.42-8.91.7.72,1.08,1.3,2.94,2.17,3.09,3.18.55,6.45.53,9.69.72Zm-82.82-11.04c.59,0-.18-.22-.71.04-1.32.63-2.54,1.48-3.79,2.24,1.13.68,2.19,1.59,3.42,1.96,1.4.43,2.98.68,4.41.48,1.67-.24,3.26-1.05,4.89-1.61-1.49-.97-2.93-2.05-4.5-2.87-.67-.35-1.63-.14-3.7-.25Z"/>
  <path class="cls-1" d="m203.62,468.06c8.34,1.93,16.95,3.87,25.54,5.91,18.15,4.3,36.29,8.64,54.42,12.98,6.73,1.61,8.35,4.1,6.78,10.72-9.47,40.2-18.96,80.39-28.48,120.58-1.67,7.07-4.07,8.62-11.06,6.98-25.95-6.08-51.88-12.22-77.8-18.39-6.09-1.45-7.74-4-6.31-10.13,9.58-40.85,19.26-81.69,28.88-122.53.97-4.13,3.32-6.41,8.02-6.11Zm-1.33,4.15c-.86,1.44-2.38,3.01-2.82,4.84-8.21,34.32-16.23,68.68-24.48,102.99-.87,3.61.15,4.53,3.47,5.3,24.65,5.71,49.26,11.59,73.86,17.48,9.8,2.35,8.1,2.4,10.18-6.35,7.73-32.56,15.46-65.11,23.16-97.68,1.54-6.49,1.49-6.5-4.81-8-15.55-3.7-31.09-7.42-46.64-11.11-10.21-2.42-20.43-4.79-31.92-7.49Zm56.89,138.5c-1.14-.76-2.49-2.25-4.12-2.65-13.87-3.43-27.79-6.68-41.7-9.97-10.83-2.56-21.68-5.06-32.5-7.69-8.28-2.01-8.19-2-9.85,6.48-.7,3.56.33,5.2,3.82,6.01,24.6,5.7,49.16,11.53,73.75,17.25,7.93,1.85,7.94,1.76,9.78-6.18.15-.65.32-1.29.81-3.25Z"/>
  <path class="cls-1" d="m840.76,599.09c-3.02,7.21-5.7,13.83-8.61,20.35-.75,1.68-2.25,3.02-3.4,4.52-1.19-1.44-2.83-2.71-3.51-4.36-7.21-17.55-14.34-35.13-21.32-52.77-1.36-3.45-3.03-5.63-6.87-6.94-19.26-6.58-30.12-25.05-26.81-44.8,3.15-18.77,19.75-32.85,38.97-33.04,29.72-.3,49.17,30.7,35.94,57.62-1.91,3.89-1.82,6.92-.24,10.7,7.3,17.51,14.39,35.11,21.46,52.72.62,1.55.51,3.4.74,5.12-1.84-.14-3.85.16-5.5-.48-6.8-2.64-13.48-5.55-20.85-8.63Zm4.28-76.53c.1-19.95-15.47-35.97-35.06-36.08-19.81-.12-35.86,15.6-35.97,35.22-.11,19.81,16.2,36.14,35.89,35.96,19.17-.18,35.05-16.04,35.14-35.1Zm-5.23,26.64q-7.56,5.08-4.55,12.49c1.38,3.39,2.97,6.72,4.03,10.21.44,1.45-.27,3.24-.45,4.87-1.2-1.11-2.89-1.99-3.52-3.36-2.33-5.11-4.32-10.37-6.6-15.98-2.83,1.15-5.21,2.12-7.99,3.25.73,2.09,1.26,3.81,1.93,5.47,2.37,5.86,4.96,11.65,7.08,17.6.65,1.81.06,4.07.04,6.12-1.32-1.45-3.11-2.68-3.88-4.38-2.55-5.6-4.75-11.36-7.06-17.07q-3.05-7.54-11.93-5.58c7.11,17.43,14.18,34.76,21.73,53.29,2.88-6.71,5.51-12.23,7.62-17.95,1.47-3.98,3.56-4.59,7.2-2.92,5.53,2.52,11.18,4.77,18.16,7.72-7.59-18.7-14.62-36.02-21.82-53.77Z"/>
  <path class="cls-1" d="m514.04,555.21c-.87,11.42-5.31,20.18-15.05,25.5-3.45,1.88-4.1,3.75-2.38,7.09,1.52,2.95,2.8,6.04,3.94,9.16,1.38,3.78.52,7.03-3.34,8.77-9.56,4.3-19.14,8.54-28.81,12.58-3.62,1.51-6.59-.06-8.3-3.48-1.63-3.27-2.99-6.68-4.41-10.05-1.11-2.63-2.44-3.8-5.72-2.77-16.05,5.01-29.47-1.1-36.54-16.45-2.44-5.29-4.67-10.67-6.91-16.05-5.81-13.94.3-30.38,14.09-36.7,15.12-6.94,30.36-13.61,45.73-19.99,15.69-6.51,31.65.12,38.48,15.74,3.06,6.99,5.73,14.16,8.39,21.31.68,1.82.64,3.91.85,5.33Zm-54.98,45.5c5.91-2.39,12.33-2.27,16.7-7.04.6-.65,2.36-.07,3.34-.56,3.94-1.97,7.8-4.11,11.64-6.27.27-.15.32-.95.25-1.42-.64-4.52,2.26-6.47,5.64-8.4,11.57-6.61,15.85-19.61,10.61-31.86-2.29-5.36-4.59-10.72-7.08-15.98-5.88-12.42-19.3-17.76-31.89-12.44-15.19,6.41-30.31,12.98-45.33,19.79-11.96,5.42-17.27,18.92-12.49,31.1,2.31,5.89,4.86,11.69,7.54,17.42,5.46,11.65,17.78,17.11,30.06,13.02,4.53-1.51,8.1-1.42,11.01,2.65Zm29.44,3.29c.72.24,1.45.48,2.17.72,2.03-1.81,5.44-3.43,5.7-5.47.26-2.04-2.34-4.78-4.27-6.59-.61-.57-4.47.8-4.49,1.34-.08,3.32.52,6.66.89,9.99Zm-16.22,8.64c.4-.83.8-1.65,1.19-2.48-2.33-2.37-4.54-4.89-7.12-6.94-.42-.33-3.66,1.51-3.62,2.24.14,2.65.33,6.21,2.01,7.59,1.44,1.18,4.94-.17,7.53-.41Zm13.88-6.78c-2.64-3.21-4.53-5.89-6.89-8.07-.48-.44-3.94,1.01-3.94,1.59,0,3.31.62,6.62,1.12,10.65,3.59-1.54,5.82-2.5,9.71-4.17Z"/>
  <path class="cls-1" d="m776.78,39.81c4.91-2.63,9.17-5.69,13.93-7.31,10.11-3.45,18.79-.03,25.65,7.63,7.34,8.2,8.5,17.85,4.8,28.02-5.06,13.92-15.48,23.19-27.97,30.05-7.98,4.38-16.61,7.6-25.09,11.01-1.73.69-4.69.74-5.98-.29-17-13.48-31.51-28.87-35.61-51.27-2.83-15.45,4.74-29.13,17.95-33.35,11.76-3.76,23.17.56,29.74,11.24.93,1.51,1.84,3.04,2.58,4.28Zm-46.97,12.18c1.15,4.84,1.75,9.89,3.55,14.47,6.06,15.47,16.95,27.34,29.61,37.67,1.11.9,3.57,1.12,4.96.56,7.54-3.08,15.21-6.01,22.33-9.91,11.58-6.34,21.54-14.58,26.53-27.42,4.54-11.68.7-23.33-9.49-29-9.56-5.32-20.64-2.34-28.16,7.46-.94,1.22-2.31,2.11-3.48,3.15-.82-1.51-1.9-2.94-2.43-4.55-2.49-7.69-6.8-13.9-14.81-16.28-14.62-4.36-28.44,7.48-28.61,23.86Z"/>
  <path class="cls-1" d="m347.24,715.59c2.63-5.5,4.53-10.84,7.52-15.46,8.55-13.21,32.22-12.3,41.37,2.39,7.33,11.78,7.25,24.34,4.25,37.11-3.11,13.24-9,25.35-16.82,36.47-.98,1.39-3.14,2.74-4.76,2.76-18.39.19-36.2-2.49-52.21-12.32-7.05-4.33-12.89-9.97-16.11-17.85-4.22-10.31-2.13-21.52,5.41-29.1,8.18-8.21,17.73-8.93,28.11-5.15,1.35.49,2.72.96,3.25,1.15Zm23.97,58.79c8.17.63,8.65.87,12.2-6.12,4.5-8.86,8.83-17.93,11.96-27.33,3.52-10.57,4.14-21.58-.83-32.16-4.92-10.48-14.75-15.52-25.27-13.03-10.33,2.45-16.41,11.06-16.26,22.78.02,1.67-.66,3.35-1.02,5.03-1.56-.75-3.26-1.29-4.65-2.28-8.51-6.07-19.55-6.11-26.88.02-7.87,6.58-10.42,17.81-5.05,27.12,2.82,4.89,6.91,9.5,11.46,12.83,13.1,9.58,28.58,12.02,44.33,13.14Z"/>
  <path class="cls-1" d="m206.62,888.44c0-5.99.24-12-.07-17.98-.25-4.79,1.44-7.82,5.84-9.86,13.9-6.44,27.68-13.12,41.54-19.65,5.27-2.48,8.61-1.55,11.11,3.66,10.6,22.06,21.07,44.18,31.46,66.34,2.04,4.35.68,7.8-3.72,9.91-14.41,6.91-28.91,13.62-43.32,20.55-3.72,1.79-6.78.99-9.63-1.53-9.73-8.61-19.48-17.19-29.04-25.97-1.4-1.29-2.42-3.59-2.59-5.51-.58-6.63-.7-13.3-.99-19.96-.2,0-.39,0-.59,0Zm52.06-44.69c-1.42.61-2.03.86-2.63,1.15-14,6.63-28.04,13.17-41.92,20.05-1.56.78-3.04,3.57-3.01,5.4.23,12.15.79,24.3,1.5,36.44.1,1.77,1.17,3.91,2.48,5.12,8.85,8.08,17.94,15.9,26.83,23.95,2.18,1.97,4.09,2.28,6.71,1.02,13.79-6.65,27.63-13.22,41.5-19.71,2.78-1.3,3.25-2.96,1.96-5.55-1.86-3.73-3.62-7.5-5.41-11.26-8.29-17.45-16.55-34.91-24.9-52.32-.77-1.61-2.12-2.94-3.11-4.27Z"/>
  <path class="cls-1" d="m661.22,387.88c-.83,1.2-1.78,3.68-3.58,4.97-10.81,7.75-21.76,15.3-32.82,22.69-1.58,1.06-4.13,1.48-6.03,1.12-12.75-2.37-25.43-5.1-38.16-7.56-3.97-.77-6.09-2.98-6.88-6.84-3.19-15.64-6.51-31.26-9.62-46.92-.98-4.95,1.22-8.1,6.17-9.11,23.62-4.84,47.25-9.65,70.9-14.36,6.52-1.3,8.77.28,10.15,6.85,3.17,15.14,6.22,30.3,9.32,45.45.17.81.25,1.64.56,3.72Zm-40.95,24.73c.91-.39,2.21-.74,3.26-1.46,10.29-7.07,20.62-14.11,30.71-21.45,1.26-.92,2.07-3.7,1.76-5.36-2.72-14.57-5.9-29.05-8.6-43.62-.83-4.46-2.71-5.23-6.86-4.35-22.32,4.7-44.68,9.26-67.07,13.63-4.58.89-5.6,2.8-4.62,7.2,2.87,12.84,5.71,25.7,7.87,38.67,1.02,6.14,3.37,9.12,9.78,10.09,11.19,1.69,22.23,4.34,33.77,6.67Z"/>
  <path class="cls-1" d="m159.24,910.82c-.34-5.98-.76-11.95-1-17.93-.23-5.56,8.6-13.63,13.97-12.45,1.11.24,2.31,2.93,2.4,4.56.64,11.96,1.16,23.93,1.39,35.91.08,4.15,1.34,7.08,4.58,9.84,9.24,7.87,18.18,16.09,27.18,24.24,3.78,3.42,3.59,4.34-1.02,6.62-1.79.89-3.61,1.72-5.41,2.57-3.53,1.68-6.71,1.26-9.67-1.39-9.55-8.54-19.21-16.94-28.64-25.62-1.53-1.41-2.74-3.84-2.94-5.91-.64-6.78-.75-13.62-1.06-20.43.08,0,.15,0,.23-.01Zm10.76-24.29c-6.56,1.38-7.22,2-7.06,7.43.34,11.63.69,23.27,1.36,34.89.12,2.03,1.39,4.46,2.9,5.88,8.38,7.82,16.97,15.42,25.54,23.04,4.73,4.21,5.67,4.13,10.92-.47-1.71-1.59-3.38-3.19-5.1-4.73-7.68-6.87-15.52-13.57-22.95-20.71-1.89-1.82-3.25-4.96-3.47-7.62-.77-8.94-.89-17.93-1.33-26.9-.18-3.58-.54-7.16-.82-10.81Z"/>
  <path class="cls-1" d="m666.66,413.89c-.93,1.37-1.78,3.76-3.47,4.97-11.1,7.91-22.33,15.64-33.68,23.19-1.43.95-3.86.99-5.68.65-12.91-2.43-25.78-5.06-38.66-7.66-4.31-.87-5.56-4.1-6.36-7.94-2.29-10.89-2.33-10.9,8.5-8.69,10.92,2.23,21.82,4.55,32.79,6.49,2.17.38,5.03-.13,6.86-1.32,10.72-7,21.22-14.34,31.81-21.53,4.1-2.78,5.05-2.38,6.17,2.6.62,2.75,1.05,5.55,1.73,9.22Zm-84.06,8.22c.57,4.28-.18,7.99,4.82,8.92,11.94,2.23,23.81,4.83,35.77,6.94,2.14.38,4.97-.28,6.8-1.49,9.44-6.23,18.64-12.82,27.95-19.24,4.91-3.39,5.15-4.47,1.72-10.35-1.52.95-3.08,1.85-4.56,2.86-8.65,5.93-17.39,11.73-25.87,17.9-3.15,2.29-6.08,2.68-9.76,1.89-12.01-2.57-24.08-4.87-36.88-7.43Z"/>
  <path class="cls-1" d="m234.75,948.2c-3.86,1.84-7.58,4.09-11.62,5.33-1.81.55-4.8-.29-6.32-1.59-10.25-8.76-20.31-17.74-30.24-26.86-1.39-1.28-2.35-3.66-2.47-5.59-.76-12.63-1.07-25.28-1.86-37.91-.35-5.55,2.55-8.05,7.07-10.07,9.34-4.18,9.3-4.27,9.63,5.96.36,11.15.67,22.31,1.39,33.44.15,2.37,1.39,5.23,3.09,6.83,8.72,8.21,17.73,16.14,26.73,24.05,1.73,1.52,3.9,2.52,5.87,3.77-.42.89-.85,1.77-1.27,2.66Zm-40.47-73.39c-7.08,1.97-7.51,2.39-7.33,8.27.35,11.48.68,22.96,1.35,34.41.12,2.03,1.4,4.45,2.92,5.86,8.28,7.7,16.98,14.96,25.16,22.77,4,3.82,7.3,3.77,11.41.02-.95-1-1.77-1.99-2.71-2.84-8.4-7.58-16.72-15.25-25.31-22.62-2.83-2.43-3.74-5.02-3.85-8.61-.36-12.27-1.06-24.53-1.65-37.26Z"/>
  <path class="cls-1" d="m631.53,469.51c-14.69-3.04-28.58-5.78-42.4-8.85-3.57-.79-7.93-13.5-5.66-16.13.75-.87,2.99-.92,4.42-.65,12.6,2.34,25.16,4.97,37.78,7.17,2.16.38,5.01-.21,6.84-1.42,10.28-6.78,20.33-13.9,30.48-20.89,5.18-3.57,6.08-3.2,7.43,2.92q2.35,10.65-6.54,16.82c-9.19,6.32-18.41,12.61-27.68,18.83-1.57,1.05-3.46,1.64-4.68,2.2Zm33.94-36.98c-9.54,6.55-18.95,12.78-28.08,19.38-4.58,3.31-9,5.13-14.74,3.28-4.25-1.36-8.77-1.87-13.18-2.72-6.95-1.34-13.9-2.64-21.06-3.99-.45,5.51,1.05,8.34,6.39,9.23,11.15,1.86,22.18,4.42,33.32,6.36,2.18.38,5.04-.12,6.87-1.32,9.46-6.18,18.56-12.93,28.07-19.04,4.48-2.88,5.08-6.05,2.42-11.18Z"/>
  <path class="cls-1" d="m45.27,781.11c-7.87,3.68-7.46,3.33-11.73-1.53-4.98-5.68.7-7.16,3.25-9.79q-3.65-8.63,3.08-12.76,3.12-1.92,8.31,4.09c3.34.5,6.01-6.8,10.01-.69,3.99,6.09,4.21,5.95-1.33,12.63,4.45,8.64,4.8,6.14-2.56,11.88-5.35,4.17-6.16-1.66-9.02-3.83Zm-7.41-2.84c.46.32.91.65,1.37.97,4.1-3.73,7.93-5.61,11.18.52.27.51,2.65-.1,5.51-.28-4.92-4.98-6.69-8.61-.61-11.78.57-.3.08-2.66.08-4.06-.29-.33-.58-.65-.87-.98-5.47,6.48-9.42,4.08-13.38-1.74-.81,2.07-1.43,4.08-.7,4.96,2.76,3.33,2.5,5.62-1.14,8.05-1,.67-.99,2.85-1.44,4.33Z"/>
  <path class="cls-1" d="m96.99,733.72c-.11,4.94-4.18,8.95-8.97,8.84-4.4-.11-8.6-4.38-8.61-8.76,0-5.01,3.82-8.89,8.78-8.89,4.95,0,8.91,3.95,8.8,8.81Zm-8.76,5.99c2.03-2.81,4.14-4.47,4.18-6.19.04-1.38-2.25-3.74-3.82-4.04-2.82-.54-4.9,1.55-4.4,4.47.28,1.68,2.09,3.09,4.04,5.77Z"/>
  <path class="cls-1" d="m72.83,754.43c.18-5.09,3.95-8.53,9.09-8.31,4.83.21,8.3,3.91,8.22,8.75-.09,5-3.98,8.77-8.9,8.62-5.01-.15-8.58-4-8.4-9.06Zm8.87-5.7c-2.11,2.79-4.22,4.39-4.31,6.1-.07,1.3,2.64,3.98,3.77,3.81,1.7-.26,3.94-2.27,4.34-3.93.31-1.26-1.88-3.14-3.8-5.98Z"/>
  <path class="cls-1" d="m504.05,981.63c.41,7.93-.07,7.76-6.69,6.12-10.35-2.56-16.19-8.42-17.8-19.01-.64-4.23-2.94-8.2-3.63-12.43-.41-2.51.44-5.48,1.59-7.82.32-.64,3.87-.13,5.72.49,5.04,1.72,10.08,3.53,14.87,5.84,1.69.82,3.52,3.05,3.77,4.85,1.06,7.57,1.56,15.23,2.18,21.97Zm-24.65-28.7c2.12,6.78,4.7,12.67,5.72,18.81,1.4,8.47,7.62,9.7,14.48,11.62-.21-2.41-.59-4.36-.5-6.28.18-3.92-.98-6.32-5.14-7.73-4.81-1.63-7.16-5.89-7.4-10.9-.2-4.19-2.56-5.26-7.16-5.52Zm12.75,4.1c-.48,6.4,1.12,8.17,5.38,7.89-1.8-2.64-3.59-5.26-5.38-7.89Z"/>
  <path class="cls-1" d="m506.21,966.72c-.11-1.33-.26-2.65-.33-3.98-.18-3.51,1.47-4.53,4.65-3.31,4.51,1.72,9.05,3.36,13.47,5.28,1.22.53,2.42,1.78,3.01,3,2.17,4.48,4,9.13,6.13,13.64,1.32,2.8,1.03,4.63-2.1,5.89-4.47,1.8-8.8,3.96-13.25,5.81-5.29,2.21-9.13-.17-9.72-5.97-.68-6.78-1.28-13.58-1.91-20.36.02,0,.03,0,.05,0Zm4.33-1.86c.7,7.63,1.24,14.71,2.11,21.75.11.92,2.22,2.52,2.85,2.29,4.56-1.66,8.97-3.71,13.32-5.59-4.78-14.04-6.69-15.99-18.27-18.46Z"/>
  <path class="cls-1" d="m346.35,319.08c1.19,1.05,4.62,2.69,5.56,5.25.96,2.61.49,6.9-1.18,9.04-2.25,2.89-4.11,5.33-3.96,9.13.12,3.16-1.9,3.96-4.69,3.26-1.45-.37-2.85-.94-4.31-1.24-3.78-.77-4.26-2.64-2.93-6.15.96-2.55,1.26-5.64.87-8.34-.84-5.84,2.83-10.84,10.64-10.94Zm-5.74,21.53c2.66-3.76,5.48-7,7.32-10.73.66-1.33-.51-4.51-1.85-5.57-.92-.73-5.16.59-5.22,1.24-.45,5.01-.25,10.08-.25,15.06Z"/>
  <path class="cls-1" d="m108.67,251.66c-1.24,1.35-1.92,2.1-2.61,2.84-1.61-2.25-3.34-4.44-4.72-6.82-.23-.41,1.01-1.67,1.57-2.54,1.83,2.07,3.66,4.15,5.75,6.52Z"/>
  <path class="cls-1" d="m691.69,651.54c2.38,2.75,4.28,4.91,6.05,7.18.04.05-1.96,1.92-2.06,1.83-2.19-1.89-4.29-3.9-6.25-6.03-.12-.13,1.11-1.49,2.25-2.98Z"/>
  <path class="cls-1" d="m823.61,234.78c5.87-2.59,9.46,1.15,13,4.47.74.69.42,2.4.96,3.45,2.91,5.57-.85,9.1-3.86,12.82-.52.65-1.63,1.02-2.52,1.15-5.13.73-10.05.5-13.51-4.15-.61-.83-.9-1.92-1.23-2.93-1.76-5.3.22-9.54,3.96-13.15.83-.79,2.11-1.11,3.19-1.65Zm5.57,15.5c2.57.08,2.94.06,2.61-7.3-.34-7.45-5.24.85-7.6-1.77-.86-.95-1.73.07-1.87,7.42q-.03,1.43,6.86,1.64Z"/>
  <path class="cls-1" d="m891.52,282.66c3.1,4.63-.44,8.59-3.9,11.77-1.91,1.75-5.5,2.1-8.38,2.25-3.96.2-10.11-8.6-9.96-13.64.07-2.43,6.21-8.75,8.38-8.61,10.18.65,14.18,2.74,13.87,8.23Zm-14.86,4.52c-.1,2.13-.1,2.32,6.82,2.4,8.17.1-.98-6.04,2.62-7.71-1.29-6.72-5.84-1.28-8.02-1.34-7.01-.16.68,4.67-1.42,6.64Z"/>
  <path class="cls-1" d="m855.59,254.98c4.84-.04,8.45,3.58,8.49,8.53.04,5.05-3.81,8.98-8.75,8.93-4.64-.04-8.62-4.04-8.61-8.64.01-5.06,3.75-8.77,8.87-8.82Zm.24,2.52c-2.22,2.68-4.58,4.33-4.4,5.63.23,1.73,2.22,3.97,3.9,4.47,1.04.31,4.02-2.14,4.13-3.52.14-1.68-1.82-3.53-3.63-6.58Z"/>
  <path class="cls-1" d="m858.43,282.29c-1.87,1.19-3.08,2.37-3.47,2.14-1.89-1.1-3.56-2.57-5.31-3.92.65-.78,1.67-2.32,1.9-2.21,2.08.98,4.02,2.26,6.88,3.98Z"/>
  <path class="cls-1" d="m843.76,271.67c-1.33,1.19-2.37,2.41-2.59,2.27-2.01-1.21-3.87-2.65-5.77-4.03.74-.67,1.8-2.06,2.15-1.9,1.99.9,3.81,2.18,6.21,3.65Z"/>
  <path class="cls-1" d="m256.54,120.04c.08,4.64-7.1,12.64-11.3,12.59-4.81-.05-12.66-7.23-12.5-11.42.19-4.96,6.76-12.15,11.14-12.2,4.78-.05,12.58,6.75,12.65,11.03Zm-14.65-6.24c-1.2,3.33-3.75,6.85-2.89,9,.84,2.09,5.55,4.23,7.86,3.63,1.87-.48,4.31-5.64,3.55-7.56-.88-2.21-4.99-3.14-8.52-5.07Z"/>
  <path class="cls-1" d="m314.89,87.93c.15,4.88-6.2,12.46-10.71,12.78-4.63.34-12.59-6.44-12.83-10.93-.26-4.87,6.41-12.49,11.13-12.71,4.62-.22,12.29,6.48,12.42,10.86Zm-4.73-1.6c-3.15-1.34-6.53-4.08-8.65-3.32-2.17.78-3.11,5-4.59,7.71,2.77,1.46,5.92,4.47,8.18,3.91,2.05-.51,3.14-4.91,5.06-8.3Z"/>
  <path class="cls-1" d="m281.56,102.63c-.03,5.1-3.74,8.99-8.61,9.01-4.98.02-8.9-3.87-8.88-8.79.02-4.59,3.98-8.72,8.45-8.82,5.04-.11,9.06,3.72,9.04,8.59Zm-2.55.44c-2.84-2.12-4.57-4.4-6.02-4.22-1.62.19-2.98,2.6-4.45,4.04,1.5,1.39,2.85,3.55,4.57,3.91,1.27.27,3.04-1.81,5.9-3.73Z"/>
  <path class="cls-1" d="m278.08,119.71c-3.24,1.82-5.21,3.1-7.34,3.98-.39.16-1.44-1.27-2.19-1.96,1.77-1.31,3.45-2.78,5.37-3.81.54-.29,1.78.72,4.16,1.8Z"/>
  <path class="cls-1" d="m289.75,108.4c.98,1.38,1.55,2.18,2.12,2.99-1.79,1.25-3.53,2.6-5.44,3.63-.28.15-1.39-1.26-2.11-1.94,1.65-1.42,3.3-2.84,5.43-4.68Z"/>
  <path class="cls-1" d="m550.83,809.29c-6.66-.44-11.63-4.84-11.24-9.95.67-8.7,4.54-12.64,11.99-12.18,6.31.39,10.71,5.14,10.31,11.16-.47,7.07-4.82,11.38-11.06,10.97Zm7.1-10.6c-2.52-2.58-4.89-6.65-6.63-6.4-2.62.38-4.81,3.78-7.18,5.9,2.07,2.24,4.16,6.28,6.2,6.25,2.47-.04,4.88-3.52,7.62-5.75Z"/>
  <path class="cls-1" d="m617.63,792.76c7.61.45,10.97,4.68,10.44,13.15-.33,5.34-5.56,9.32-11.75,8.95-6.49-.39-10.63-5.2-10.24-11.89.38-6.55,4.96-10.59,11.55-10.2Zm6.7,11.22c-2.5-2.54-4.95-6.64-6.63-6.35-2.6.45-4.68,3.91-6.97,6.09,2.12,2.13,4.27,5.97,6.37,5.94,2.37-.03,4.7-3.53,7.24-5.69Z"/>
  <path class="cls-1" d="m592.89,799.11c-.08,4.79-4.34,8.81-9.12,8.62-4.45-.18-8.45-4.36-8.47-8.86-.02-4.98,4.35-9.05,9.45-8.8,4.48.22,8.22,4.38,8.14,9.05Zm-8.53-6.49c-2.06,2.89-4.17,4.57-4.2,6.28-.02,1.36,2.8,4.09,3.83,3.86,1.74-.39,3.92-2.45,4.3-4.17.28-1.29-1.96-3.14-3.92-5.97Z"/>
  <path class="cls-1" d="m574.44,816.82c-1.7-1.26-3.01-2.24-4.32-3.21,1.21-.77,2.5-2.26,3.62-2.14,1.45.15,2.78,1.57,4.16,2.44-.98.82-1.95,1.65-3.45,2.91Z"/>
  <path class="cls-1" d="m592.01,818.09c-1.76-1.27-3.04-2.19-4.31-3.11,1.22-.71,2.48-2.04,3.65-1.96,1.49.09,2.9,1.33,4.34,2.08-1.08.88-2.15,1.75-3.68,3Z"/>
  <path class="cls-1" d="m231.64,578.99c-12.35-1.84-26.26-3.46-34.15-17.46-3.82-6.79-5.51-13.96-3.75-21.63,3.39-14.77,6.92-29.51,10.48-44.24,1-4.12,3.4-5.29,6.28-2.18,3.24,3.49,6,8,7.3,12.55,1.48,5.17,1.32,10.86,1.44,16.33.07,3.04,1.06,4.56,4.04,5.19,6.35,1.35,12.69,2.8,18.97,4.46,2.85.75,4.09-.3,5.46-2.68,3.15-5.46,6.09-11.25,10.3-15.81,2.89-3.13,7.62-4.85,11.84-6.36,2.53-.9,4.46.79,3.66,4.06-3.81,15.7-7.16,31.52-11.5,47.07-3.43,12.3-16.19,20.87-30.38,20.7Zm-21.68-81.12c-.63.05-1.26.1-1.88.14-3.4,14.74-7.22,29.39-10.05,44.24-2.14,11.24,3.48,21.91,13.75,26.97,4.83,2.38,10.34,3.58,15.68,4.71,14.16,3,27.89-5.59,31.37-19.59,3.26-13.08,6.24-26.23,9.3-39.36.23-1,.14-2.08.25-3.95-9.81,5.08-13.48,13.66-17.66,22.39,1.54.59,2.56.79,3.34,1.33,1.31.92,2.46,2.07,3.68,3.12-1.57.35-3.26,1.26-4.69.96-8.46-1.79-16.87-3.86-25.29-5.84-6.15-1.45-12.33-2.79-18.43-4.44-1.11-.3-1.89-1.84-2.82-2.81,1.25-.47,2.47-1.2,3.75-1.34,1.36-.15,2.78.26,4.59.48.46-9.88.08-18.92-4.88-27.02Z"/>
  <path class="cls-1" d="m215.13,608.67c-1.64-1.65-2.88-2.89-4.12-4.13,1.24-.49,2.63-1.59,3.67-1.32,1.49.39,2.73,1.77,4.07,2.73-1.02.77-2.04,1.53-3.62,2.72Z"/>
  <path class="cls-1" d="m804.68,532.43c-3.43-3.64-1.36-10-8.12-10.68-2.9-.29-6.01-9.29-4.34-12.03,2.42-3.97,4.92-7.94,7.83-11.55,3.79-4.7,7.59-4.1,9.92,1.39,3.24,7.65,6.15,15.44,9.52,23.03.67,1.5,3.09,2.13,4.12,3.58,2.09,2.94,4.11,6.05,5.39,9.38.3.78-2.19,3.29-3.84,4.04-5.13,2.34-10.53,4.11-15.71,6.34-2.82,1.22-4.47.5-5.38-2.26-1.26-3.82-5.31-7.61.6-11.25Zm.17-33.64c-3.21,4.78-5.93,8.01-7.57,11.71-.65,1.46,1.09,5.74,1.75,5.74,5.79.02,5.06,5.08,6.54,8.12,1.71,3.5,2.62,7.41,3.75,11.18.1.33-1.02.89-1.18,1.45-.31,1.09-.34,2.25-.49,3.38,1.04.13,2.22.65,3.08.32,4.45-1.71,8.81-3.63,14-5.82-1.3-1.46-2.21-3.17-2.83-3.07-3.82.61-4.35-2.21-5.35-4.62-1.02-2.45-2.03-4.91-3.04-7.36-2.69-6.53-5.38-13.06-8.67-21.03Z"/>
  <path class="cls-1" d="m501.73,556.74c-.61,6.28-5.05,11.62-11.16,12.96-5.5,1.21-12.06-2.11-14.53-7.26-2.05-4.26-.36-7.79,2.93-10.02,4.06-2.76,8.57-5.08,13.21-6.6,1.72-.56,5.07,1.11,6.39,2.78,1.72,2.19,2.17,5.38,3.16,8.14Zm-14.8,9.71c.32-.31.63-.63.95-.94,1.14-.2,2.33-.25,3.41-.63,4.74-1.69,7.03-7.7,4.56-12.43-2.71-5.21-5.86-.81-8.78-.12-.93.22-2,.74-2.56,1.46-1.6,2.07-4.62,5-4.06,6.36,1.05,2.56,4.21,4.25,6.49,6.3Z"/>
  <path class="cls-1" d="m452.25,577.59c.09,7.37-5.19,13.03-12.52,13.42-7.25.39-13.9-5.21-14.16-12.42-.06-1.74,1.31-4.47,2.77-5.15,4.59-2.16,9.43-4.21,14.38-5.1,5.85-1.06,9.44,2.93,9.52,9.26Zm-8.61-5.78c-4.72,1.8-8.47,3.11-12.09,4.72-.74.33-1.44,1.84-1.35,2.73.41,4.42,5.79,8.18,10.28,7.39,4.84-.85,8.52-5.69,7.19-10.19-.52-1.75-2.57-3.05-4.01-4.66Z"/>
  <path class="cls-1" d="m473.36,572.19c1.36,1.08,2.27,1.44,2.52,2.06,1.26,3.13,2.36,6.32,3.39,9.53.03.09-1.85.97-1.9.9-1.76-2.86-3.55-5.73-4.98-8.76-.35-.75.5-2.07.97-3.73Z"/>
  <path class="cls-1" d="m466.26,590.93c-1.4-.97-2.31-1.27-2.62-1.88-1.26-2.49-2.49-5.01-3.37-7.64-.26-.78.64-1.94,1.01-2.93.92.45,2.28.67,2.68,1.4,1.25,2.29,2.31,4.73,3.09,7.23.29.92-.41,2.16-.78,3.83Z"/>
  <path class="cls-1" d="m753.94,36.19c.41.36,1.6,1.41,2.79,2.45-1.29.71-2.55,1.97-3.88,2.04-4.43.22-6.92,2.57-8.63,6.39-.42.94-1.81,1.45-2.76,2.16-.4-1.25-1.33-2.6-1.12-3.74.89-4.81,6.95-9.25,13.61-9.3Z"/>
  <path class="cls-1" d="m320.59,737.34c2.06-3.19,3.93-6.54,6.31-9.48.67-.83,2.83-.45,4.3-.63-.48,1.24-.62,2.85-1.5,3.65-3.17,2.86-4.21,6.1-3.25,10.29.28,1.2-.69,2.69-1.09,4.04-1.06-1.06-2.41-1.96-3.1-3.22-.59-1.08-.43-2.58-.6-3.89-.35-.25-.71-.51-1.06-.76Z"/>
  <path class="cls-1" d="m265.45,908.19c-1.32.46-3.09,1.72-3.89,1.27-7.54-4.32-13.1-1.77-17.92,4.51-.58.76-2.44,1.51-2.93,1.16-.9-.63-1.22-2.08-1.76-3.2-.07-.14-.04-.33-.02-.49,1.48-9.86-1.96-17.4-10.43-22.77-1.17-.74-1.59-2.65-2.35-4.02,1.45-.65,2.89-1.34,4.37-1.91.6-.23,1.32-.31,1.97-.25,5.95.5,9.12-2.32,10.33-8.06.34-1.61,1.83-2.98,2.79-4.46,1.36,1.07,3.27,1.86,3.98,3.27,3.02,5.98,7.54,8.45,14.3,8.47,5.61.01,6.34,1.7,2.91,5.88-4.28,5.2-5.23,10.46-2.48,16.53.41.89.54,1.91,1.13,4.1Zm-22.08-.66c4.67-5.17,9.41-7.74,16.1-3.56-3.41-6.95-1.44-12.56,3.91-18.62-8.41,1.3-13.15-1.96-16.74-8.15-1.09,7.38-5.75,9.67-12.51,10.03,6.94,5.13,10.56,11.35,9.25,20.3Z"/>
  <path class="cls-1" d="m630.72,387.93c-1.01-.17-1.36-.18-1.67-.3-9.2-3.55-17.42-2.45-24.6,4.78-.93.94-2.95.8-4.47,1.16-.27-1.41-.63-2.8-.77-4.22-.08-.8.1-1.67.33-2.46,1.62-5.43-.02-9.26-5.19-11.85-1.59-.79-2.64-2.67-3.93-4.05,1.59-1.04,3.05-2.55,4.79-3.04,5.93-1.67,9.52-4.94,10.92-11.29,1.25-5.67,3.36-6.14,6.59-1.64,4.22,5.87,9.64,6.69,16.15,6.13,4.82-.42,6.13,1.55,3.14,4.89-5.32,5.95-4.07,11.12.13,16.73.78,1.04,1.04,2.74.88,4.06-.06.55-1.85.9-2.32,1.1Zm-31.33-14.92c5.52,1.96,6.71,6.92,4.84,13.8,6.64-6.36,13.98-7.4,22.42-4.64-4.73-5.73-5.14-10.86.14-16.35-7.57,1.95-12.32-1.47-15.36-5.72-4.06,4.35-7.87,8.43-12.04,12.9Z"/>
  <path class="cls-1" d="m214.25,550.78c.05-5.67,1.4-6.8,6.88-5.57,5.49,1.23,10.95,2.64,16.45,3.84,2.93.64,3.73,2.14,3,5.02-1.58,6.22-8.02,11.19-13.92,10.51-7.27-.84-12.48-6.63-12.41-13.8Zm5.23-1.4c-.66,5.88,1.69,9.49,6.08,10.48,4.53,1.02,8.57-1.54,10.03-6.67-5.26-1.24-10.49-2.48-16.11-3.81Z"/>
</svg>